<svg xmlns="http://www.w3.org/2000/svg" width="300" height="300"><defs><filter id="a"><feGaussianBlur stdDeviation="1.966"/></filter></defs><g letter-spacing="0" word-spacing="0" font-family="FontAwesome"><text style="line-height:125%;-inkscape-font-specification:FontAwesome" x="205.714" y="466.648" font-size="40" transform="translate(-109.255 -286.648)"/><g><path d="M234.7 185.872c4.894-11.384 7.341-23.3 7.341-35.749 0-12.448-2.447-24.311-7.341-35.589-4.788-11.384-11.331-21.172-19.63-29.365-8.193-8.299-17.981-14.842-29.365-19.63-11.278-4.894-23.141-7.341-35.589-7.341s-24.365 2.447-35.749 7.341c-11.278 4.788-21.066 11.331-29.365 19.63-8.192 8.193-14.736 17.981-19.63 29.365-4.788 11.278-7.182 23.141-7.182 35.589s2.394 24.365 7.182 35.749c4.894 11.278 11.437 21.066 19.63 29.365 8.299 8.192 18.087 14.736 29.365 19.63 11.384 4.788 23.3 7.182 35.749 7.182 12.448 0 24.311-2.394 35.589-7.182 11.384-4.894 21.172-11.437 29.365-19.63 8.299-8.299 14.842-18.087 19.63-29.365m51.389 8.458c-.426 1.596-1.49 2.66-3.192 3.192l-46.601 15.321v48.835c0 1.702-.692 3.085-2.075 4.149-1.596 1.064-3.139 1.277-4.628.638l-46.601-15.002-28.727 39.579c-1.064 1.383-2.447 2.075-4.149 2.075s-3.086-.692-4.149-2.075l-28.727-39.579-46.601 15.002c-1.49.638-3.032.426-4.628-.638-1.383-1.064-2.075-2.447-2.075-4.149v-48.835l-46.601-15.321c-1.702-.532-2.766-1.596-3.192-3.192-.532-1.809-.319-3.351.638-4.628l28.727-39.579-28.727-39.579c-.958-1.383-1.17-2.926-.638-4.628.426-1.596 1.49-2.66 3.192-3.192l46.601-15.321v-48.835c0-1.702.692-3.085 2.075-4.149 1.596-1.064 3.139-1.277 4.628-.638l46.601 15.002 28.727-39.579c.957-1.276 2.341-1.915 4.149-1.915 1.809 0 3.192.639 4.149 1.915l28.727 39.579 46.601-15.002c1.489-.638 3.032-.425 4.628.638 1.383 1.064 2.074 2.447 2.075 4.149v48.835l46.601 15.321c1.702.532 2.766 1.596 3.192 3.192.532 1.702.319 3.245-.638 4.628l-28.727 39.579 28.727 39.579c.957 1.277 1.17 2.82.638 4.628" font-size="297.286"/><path d="M145.073 128.951c2.875-2.875 4.312-6.365 4.312-10.472 0-4.107-1.437-7.597-4.312-10.472-2.875-2.875-6.365-4.312-10.472-4.312-4.107 0-7.597 1.437-10.472 4.312-2.875 2.875-4.312 6.365-4.312 10.472 0 2.156.488 4.286 1.463 6.391-2.105-.975-4.235-1.463-6.391-1.463-4.107 0-7.597 1.437-10.472 4.312-2.875 2.875-4.312 6.365-4.312 10.472 0 4.107 1.437 7.597 4.312 10.472 2.875 2.875 6.365 4.312 10.472 4.312 4.107 0 7.597-1.437 10.472-4.312 2.875-2.875 4.312-6.365 4.312-10.472 0-2.156-.488-4.286-1.463-6.391 2.105.975 4.235 1.463 6.391 1.463 4.107 0 7.597-1.437 10.472-4.312m69.839 43.736c0 .873-1.258 2.567-3.773 5.082-2.515 2.515-4.209 3.773-5.082 3.773-.462 0-1.206-.411-2.233-1.232-.975-.821-1.899-1.668-2.772-2.541-.873-.873-1.874-1.899-3.003-3.08-1.078-1.181-1.694-1.848-1.848-2.002l-7.392 7.392 16.94 16.94c1.437 1.437 2.156 3.183 2.156 5.236 0 2.156-1.001 4.235-3.003 6.237-2.002 2.002-4.081 3.003-6.237 3.003-2.053 0-3.799-.719-5.236-2.156l-51.667-51.667c-9.035 6.725-18.403 10.087-28.105 10.087-8.367 0-15.195-2.618-20.482-7.854-5.236-5.287-7.854-12.115-7.854-20.482 0-8.213 2.438-16.247 7.315-24.101 4.877-7.854 11.242-14.219 19.096-19.096 7.854-4.877 15.888-7.315 24.101-7.315 8.367 0 15.169 2.644 20.405 7.931 5.287 5.236 7.931 12.038 7.931 20.405 0 9.702-3.362 19.07-10.087 28.105l27.335 27.335 7.392-7.392c-.154-.154-.821-.77-2.002-1.848-1.181-1.129-2.207-2.13-3.08-3.003-.873-.873-1.72-1.797-2.541-2.772-.821-1.027-1.232-1.771-1.232-2.233 0-.873 1.258-2.567 3.773-5.082 2.515-2.515 4.209-3.773 5.082-3.773.667 0 1.258.257 1.771.77.308.308 1.489 1.463 3.542 3.465 2.053 1.951 4.158 3.978 6.314 6.083 2.156 2.105 4.363 4.312 6.622 6.622 2.31 2.31 4.184 4.312 5.621 6.006 1.489 1.694 2.233 2.746 2.233 3.157" font-size="143.434"/><path d="M148.921 132.799c2.875-2.875 4.312-6.365 4.312-10.472 0-4.107-1.437-7.597-4.312-10.472-2.875-2.875-6.365-4.312-10.472-4.312-4.107 0-7.597 1.437-10.472 4.312-2.875 2.875-4.312 6.365-4.312 10.472 0 2.156.488 4.286 1.463 6.391-2.105-.975-4.235-1.463-6.391-1.463-4.107 0-7.597 1.437-10.472 4.312-2.875 2.875-4.312 6.365-4.312 10.472 0 4.107 1.437 7.597 4.312 10.472 2.875 2.875 6.365 4.312 10.472 4.312 4.107 0 7.597-1.437 10.472-4.312 2.875-2.875 4.312-6.365 4.312-10.472 0-2.156-.488-4.286-1.463-6.391 2.105.975 4.235 1.463 6.391 1.463 4.107 0 7.597-1.437 10.472-4.312m69.839 43.736c0 .873-1.258 2.567-3.773 5.082-2.515 2.515-4.209 3.773-5.082 3.773-.462 0-1.206-.411-2.233-1.232-.975-.821-1.899-1.668-2.772-2.541-.873-.873-1.874-1.899-3.003-3.08-1.078-1.181-1.694-1.848-1.848-2.002l-7.392 7.392 16.94 16.94c1.437 1.437 2.156 3.183 2.156 5.236 0 2.156-1.001 4.235-3.003 6.237-2.002 2.002-4.081 3.003-6.237 3.003-2.053 0-3.799-.719-5.236-2.156l-51.667-51.667c-9.035 6.725-18.403 10.087-28.105 10.087-8.367 0-15.195-2.618-20.482-7.854-5.236-5.287-7.854-12.115-7.854-20.482 0-8.213 2.438-16.247 7.315-24.101 4.877-7.854 11.242-14.219 19.096-19.096 7.854-4.877 15.888-7.315 24.101-7.315 8.367 0 15.169 2.644 20.405 7.931 5.287 5.236 7.931 12.038 7.931 20.405 0 9.702-3.362 19.07-10.087 28.105l27.335 27.335 7.392-7.392c-.154-.154-.821-.77-2.002-1.848-1.181-1.129-2.207-2.13-3.08-3.003-.873-.873-1.72-1.797-2.541-2.772-.821-1.027-1.232-1.771-1.232-2.233 0-.873 1.258-2.567 3.773-5.082 2.515-2.515 4.209-3.773 5.082-3.773.667 0 1.258.257 1.771.77.308.308 1.489 1.463 3.542 3.465 2.053 1.951 4.158 3.978 6.314 6.083 2.156 2.105 4.363 4.312 6.622 6.622 2.31 2.31 4.184 4.312 5.621 6.006 1.489 1.694 2.233 2.746 2.233 3.157" font-size="143.434" opacity=".25" filter="url(#a)"/></g></g></svg>