<svg xmlns="http://www.w3.org/2000/svg" width="300" height="300"><defs><filter id="a"><feGaussianBlur stdDeviation="1.966"/></filter></defs><g letter-spacing="0" word-spacing="0" font-family="FontAwesome"><text style="line-height:125%;-inkscape-font-specification:FontAwesome" x="205.714" y="466.648" font-size="40" transform="translate(-109.255 -286.648)"/><g><path d="M234.7 185.872c4.894-11.384 7.34-23.3 7.34-35.748 0-12.45-2.446-24.312-7.34-35.59-4.788-11.384-11.33-21.172-19.63-29.365-8.192-8.3-17.98-14.843-29.365-19.63-11.278-4.894-23.14-7.342-35.59-7.342-12.447 0-24.363 2.448-35.747 7.342C103.09 70.327 93.3 76.87 85.003 85.17c-8.193 8.192-14.736 17.98-19.63 29.364-4.788 11.278-7.182 23.14-7.182 35.59 0 12.448 2.395 24.364 7.183 35.748 4.894 11.278 11.437 21.066 19.63 29.365 8.298 8.193 18.087 14.736 29.365 19.63 11.384 4.788 23.3 7.182 35.748 7.182 12.448 0 24.31-2.395 35.59-7.183 11.383-4.894 21.172-11.437 29.364-19.63 8.3-8.3 14.842-18.087 19.63-29.365m51.39 8.46c-.427 1.595-1.49 2.66-3.193 3.19l-46.6 15.32v48.837c0 1.7-.693 3.084-2.076 4.148-1.595 1.064-3.137 1.277-4.627.638l-46.6-15-28.727 39.578c-1.064 1.383-2.448 2.074-4.15 2.074-1.702 0-3.085-.69-4.15-2.074l-28.726-39.58-46.6 15.002c-1.49.64-3.033.426-4.63-.638-1.382-1.064-2.074-2.447-2.074-4.15v-48.835l-46.6-15.32c-1.703-.532-2.767-1.596-3.192-3.192-.532-1.808-.32-3.35.638-4.628l28.727-39.578-28.728-39.58c-.958-1.382-1.17-2.925-.638-4.628.425-1.595 1.49-2.66 3.19-3.19l46.602-15.322V38.568c0-1.702.692-3.085 2.075-4.15 1.597-1.063 3.14-1.275 4.63-.637l46.6 15.002 28.727-39.58c.957-1.275 2.34-1.913 4.15-1.914 1.808 0 3.19.64 4.15 1.915l28.725 39.58 46.6-15.002c1.49-.637 3.033-.425 4.63.64 1.382 1.063 2.074 2.446 2.074 4.148v48.836l46.6 15.32c1.703.533 2.767 1.597 3.193 3.192.53 1.703.318 3.246-.64 4.63l-28.726 39.578 28.727 39.578c.958 1.277 1.17 2.82.64 4.63" font-size="297.286"/><path d="M145.073 128.95c2.874-2.873 4.312-6.364 4.312-10.47 0-4.107-1.438-7.598-4.312-10.473-2.875-2.874-6.366-4.312-10.472-4.312s-7.597 1.438-10.47 4.312c-2.876 2.875-4.313 6.366-4.313 10.472 0 2.155.487 4.286 1.463 6.39-2.105-.975-4.235-1.463-6.39-1.463-4.108 0-7.6 1.438-10.473 4.312-2.875 2.874-4.312 6.365-4.312 10.47 0 4.108 1.437 7.6 4.312 10.473 2.874 2.875 6.365 4.312 10.472 4.312 4.105 0 7.596-1.437 10.47-4.312 2.875-2.874 4.313-6.365 4.313-10.472 0-2.155-.488-4.285-1.463-6.39 2.104.976 4.235 1.463 6.39 1.463 4.107 0 7.598-1.437 10.473-4.312m69.84 43.737c0 .873-1.26 2.567-3.774 5.082-2.517 2.515-4.21 3.772-5.083 3.772-.462 0-1.207-.41-2.233-1.232-.976-.82-1.9-1.668-2.772-2.54-.873-.873-1.874-1.9-3.003-3.08-1.08-1.18-1.695-1.85-1.85-2.003l-7.39 7.392 16.94 16.94c1.436 1.437 2.155 3.182 2.155 5.235 0 2.156-1 4.235-3.003 6.237-2.002 2.002-4.08 3.003-6.237 3.003-2.054 0-3.8-.718-5.236-2.156L141.76 157.67c-9.035 6.725-18.403 10.087-28.105 10.087-8.368 0-15.195-2.62-20.482-7.855-5.236-5.287-7.854-12.114-7.854-20.482 0-8.213 2.44-16.247 7.316-24.1 4.876-7.855 11.242-14.22 19.096-19.097 7.854-4.876 15.887-7.315 24.1-7.315 8.368 0 15.17 2.645 20.406 7.932 5.287 5.236 7.93 12.038 7.93 20.405 0 9.702-3.362 19.07-10.086 28.105l27.335 27.335 7.392-7.392c-.155-.154-.823-.77-2.003-1.848-1.18-1.13-2.208-2.13-3.08-3.003-.873-.872-1.72-1.796-2.54-2.772-.823-1.026-1.233-1.77-1.233-2.233 0-.873 1.257-2.567 3.773-5.083 2.515-2.515 4.21-3.773 5.082-3.773.666 0 1.256.257 1.77.77.308.308 1.488 1.463 3.542 3.465 2.053 1.95 4.158 3.978 6.314 6.082 2.156 2.105 4.363 4.312 6.622 6.622 2.31 2.31 4.183 4.312 5.62 6.006 1.49 1.694 2.234 2.747 2.234 3.157" font-size="143.434"/><path d="M148.92 132.8c2.875-2.875 4.313-6.366 4.313-10.473 0-4.106-1.438-7.597-4.312-10.472-2.874-2.874-6.365-4.312-10.47-4.312-4.108 0-7.6 1.438-10.473 4.312-2.875 2.875-4.312 6.366-4.312 10.472 0 2.156.487 4.287 1.463 6.39-2.105-.974-4.235-1.462-6.39-1.462-4.108 0-7.6 1.438-10.473 4.312-2.875 2.875-4.312 6.366-4.312 10.472s1.437 7.597 4.312 10.47c2.874 2.876 6.365 4.313 10.472 4.313 4.106 0 7.597-1.437 10.472-4.312 2.873-2.873 4.31-6.364 4.31-10.47 0-2.157-.487-4.287-1.462-6.392 2.104.976 4.235 1.463 6.39 1.463 4.107 0 7.598-1.436 10.473-4.31m69.84 43.735c0 .873-1.258 2.567-3.773 5.082-2.516 2.516-4.21 3.773-5.082 3.773-.462 0-1.207-.41-2.233-1.232-.976-.82-1.9-1.668-2.772-2.54-.873-.873-1.874-1.9-3.003-3.08-1.078-1.18-1.694-1.85-1.848-2.003l-7.393 7.392 16.94 16.94c1.437 1.438 2.156 3.183 2.156 5.236 0 2.156-1 4.235-3.003 6.237-2.002 2.002-4.08 3.003-6.237 3.003-2.054 0-3.8-.718-5.236-2.156L145.61 161.52c-9.035 6.725-18.403 10.087-28.105 10.087-8.368 0-15.195-2.618-20.482-7.854-5.236-5.287-7.854-12.114-7.854-20.482 0-8.212 2.437-16.246 7.314-24.1 4.876-7.854 11.242-14.22 19.096-19.096 7.854-4.876 15.887-7.315 24.1-7.315 8.368 0 15.17 2.643 20.406 7.93 5.287 5.236 7.93 12.038 7.93 20.405 0 9.702-3.362 19.07-10.086 28.105l27.335 27.335 7.392-7.392c-.154-.154-.822-.77-2.002-1.848-1.18-1.13-2.208-2.13-3.08-3.003-.873-.872-1.72-1.796-2.54-2.772-.823-1.026-1.233-1.77-1.233-2.233 0-.872 1.257-2.566 3.773-5.082 2.515-2.515 4.21-3.773 5.082-3.773.667 0 1.257.257 1.77.77.31.308 1.49 1.463 3.543 3.465 2.053 1.95 4.158 3.98 6.314 6.083 2.156 2.105 4.363 4.312 6.622 6.622 2.31 2.31 4.183 4.312 5.62 6.006 1.49 1.694 2.234 2.747 2.234 3.157" font-size="143.434" opacity=".25" filter="url(#a)"/></g></g></svg>