<?xml version="1.0" encoding="UTF-8" standalone="no"?>
<!-- Created with Inkscape (http://www.inkscape.org/) -->

<svg
   xmlns:dc="http://purl.org/dc/elements/1.1/"
   xmlns:cc="http://creativecommons.org/ns#"
   xmlns:rdf="http://www.w3.org/1999/02/22-rdf-syntax-ns#"
   xmlns:svg="http://www.w3.org/2000/svg"
   xmlns="http://www.w3.org/2000/svg"
   version="1.1"
   width="300"
   height="300"
   id="svg2">
  <defs
     id="defs4">
    <filter
       color-interpolation-filters="sRGB"
       id="filter3833">
      <feGaussianBlur
         id="feGaussianBlur3835"
         stdDeviation="1.966019" />
    </filter>
  </defs>
  <metadata
     id="metadata7">
    <rdf:RDF>
      <cc:Work
         rdf:about="">
        <dc:format>image/svg+xml</dc:format>
        <dc:type
           rdf:resource="http://purl.org/dc/dcmitype/StillImage" />
        <dc:title></dc:title>
      </cc:Work>
    </rdf:RDF>
  </metadata>
  <g
     transform="translate(-109.25531,-286.6479)"
     id="layer1">
    <text
       x="205.71429"
       y="466.64789"
       id="text2985"
       xml:space="preserve"
       style="font-size:40px;font-style:normal;font-variant:normal;font-weight:normal;font-stretch:normal;line-height:125%;letter-spacing:0px;word-spacing:0px;fill:#000000;fill-opacity:1;stroke:none;font-family:FontAwesome;-inkscape-font-specification:FontAwesome"><tspan
         x="205.71429"
         y="466.64789"
         id="tspan2987" /><tspan
         x="205.71429"
         y="516.64789"
         id="tspan2989" /></text>
    <g
       transform="matrix(0.96153557,0,0,0.96153557,17.4978,15.411064)"
       id="g2999">
      <g
         id="text2991"
         style="font-size:297.28643799px;font-style:normal;font-variant:normal;font-weight:normal;font-stretch:normal;line-height:125%;letter-spacing:0px;word-spacing:0px;fill:#000000;fill-opacity:1;stroke:none;font-family:FontAwesome;-inkscape-font-specification:FontAwesome">
        <path
           d="m 339.35368,475.16548 c 5.08725,-11.83386 7.631,-24.22079 7.63124,-37.1608 -2.4e-4,-12.93981 -2.54399,-25.27143 -7.63124,-36.99491 -4.97712,-11.83379 -11.77887,-22.00876 -20.40526,-30.52495 -8.51622,-8.62643 -18.6912,-15.42818 -30.52495,-20.40526 -11.72352,-5.08729 -24.05514,-7.63104 -36.9949,-7.63124 -12.94006,2e-4 -25.32699,2.54395 -37.16081,7.63124 -11.72345,4.97708 -21.89842,11.77883 -30.52495,20.40526 -8.51609,8.51619 -15.31783,18.69116 -20.40526,30.52495 -4.97695,11.72348 -7.46539,24.0551 -7.46534,36.99491 -5e-5,12.94001 2.48839,25.32694 7.46534,37.1608 5.08743,11.72341 11.88917,21.89838 20.40526,30.52495 8.62653,8.51605 18.8015,15.31779 30.52495,20.40526 11.83382,4.97691 24.22075,7.46535 37.16081,7.46534 12.93976,1e-5 25.27138,-2.48843 36.9949,-7.46534 11.83375,-5.08747 22.00873,-11.88921 30.52495,-20.40526 8.62639,-8.62657 15.42814,-18.80154 20.40526,-30.52495 m 53.41866,8.79251 c -0.44268,1.65903 -1.54865,2.765 -3.31793,3.31793 l -48.44176,15.92606 0,50.76432 c -2.4e-4,1.76955 -0.71912,3.20731 -2.15665,4.3133 -1.6592,1.10597 -3.26287,1.32716 -4.811,0.66359 l -48.44177,-15.59427 -29.86136,41.14232 c -1.10612,1.43773 -2.54389,2.15661 -4.3133,2.15666 -1.76971,-5e-5 -3.20748,-0.71893 -4.31331,-2.15666 l -29.86136,-41.14232 -48.44177,15.59427 c -1.54843,0.66357 -3.15209,0.44238 -4.81099,-0.66359 -1.43783,-1.10599 -2.15672,-2.54375 -2.15666,-4.3133 l 0,-50.76432 -48.44176,-15.92606 c -1.76957,-0.55293 -2.87555,-1.6589 -3.31793,-3.31793 -0.55299,-1.88009 -0.3318,-3.48376 0.66359,-4.81099 l 29.86136,-41.14232 -29.86136,-41.14232 c -0.99539,-1.43762 -1.21658,-3.04129 -0.66359,-4.811 0.44238,-1.65881 1.54836,-2.76478 3.31793,-3.31793 l 48.44176,-15.92606 0,-50.76431 c -6e-5,-1.76934 0.71883,-3.20711 2.15666,-4.31331 1.6589,-1.10575 3.26256,-1.32694 4.81099,-0.66358 l 48.44177,15.59426 29.86136,-41.14232 c 0.99523,-1.32691 2.433,-1.9905 4.31331,-1.99075 1.88001,2.5e-4 3.31777,0.66384 4.3133,1.99075 l 29.86136,41.14232 48.44177,-15.59426 c 1.54813,-0.66336 3.1518,-0.44217 4.811,0.66358 1.43753,1.1062 2.15641,2.54397 2.15665,4.31331 l 0,50.76431 48.44176,15.92606 c 1.76928,0.55315 2.87525,1.65912 3.31793,3.31793 0.5527,1.76971 0.3315,3.37338 -0.66358,4.811 l -29.86137,41.14232 29.86137,41.14232 c 0.99508,1.32723 1.21628,2.9309 0.66358,4.81099"
           id="path3860" />
      </g>
      <g
         id="text2995"
         style="font-size:143.43434143px;font-style:normal;font-variant:normal;font-weight:normal;font-stretch:normal;line-height:125%;letter-spacing:0px;word-spacing:0px;fill:#000000;fill-opacity:1;stroke:none;font-family:FontAwesome;-inkscape-font-specification:FontAwesome">
        <path
           d="m 246.18585,415.99619 c 2.98815,-2.98814 4.48225,-6.61669 4.48232,-10.88564 -7e-5,-4.2688 -1.49417,-7.89734 -4.48232,-10.88564 -2.98828,-2.98812 -6.61682,-4.48223 -10.88565,-4.48233 -4.26892,1e-4 -7.89747,1.49421 -10.88564,4.48233 -2.98825,2.9883 -4.48236,6.61684 -4.48232,10.88564 -4e-5,2.24124 0.50689,4.45572 1.52079,6.64344 -2.18784,-1.01378 -4.40232,-1.52071 -6.64345,-1.52079 -4.2689,8e-5 -7.89744,1.49419 -10.88564,4.48233 -2.98823,2.98828 -4.48234,6.61682 -4.48232,10.88564 -2e-5,4.26893 1.49409,7.89748 4.48232,10.88564 2.9882,2.98826 6.61674,4.48237 10.88564,4.48232 4.26885,5e-5 7.89739,-1.49406 10.88565,-4.48232 2.98817,-2.98816 4.48227,-6.61671 4.48232,-10.88564 -5e-5,-2.2411 -0.50698,-4.45558 -1.52079,-6.64345 2.18776,1.01393 4.40223,1.52086 6.64344,1.52079 4.26883,7e-5 7.89737,-1.49404 10.88565,-4.48232 m 72.59762,45.46356 c -1.3e-4,0.90716 -1.30747,2.66808 -3.92203,5.28274 -2.61482,2.61471 -4.37573,3.92205 -5.28274,3.92203 -0.48037,2e-5 -1.2541,-0.42687 -2.3212,-1.28066 -1.01398,-0.85376 -1.97448,-1.73421 -2.88149,-2.64137 -0.90726,-0.90711 -1.9478,-1.97433 -3.12162,-3.20166 -1.1207,-1.22728 -1.76103,-1.92097 -1.921,-2.08108 l -7.68398,7.68399 17.60913,17.60912 c 1.49398,1.49411 2.24103,3.30838 2.24116,5.44282 -1.3e-4,2.24116 -1.04067,4.40228 -3.12162,6.48336 -2.0812,2.08107 -4.24232,3.12161 -6.48336,3.12162 -2.13455,-10e-6 -3.94883,-0.74707 -5.44282,-2.24116 l -53.70784,-53.70784 c -9.39158,6.99033 -19.12995,10.48547 -29.21514,10.48544 -8.69786,3e-5 -15.79487,-2.72138 -21.29103,-8.16423 -5.44283,-5.49614 -8.16424,-12.59315 -8.16424,-21.29104 0,-8.53769 2.53465,-16.88867 7.60395,-25.05298 5.06928,-8.16414 11.68603,-14.7809 19.85028,-19.85029 8.1642,-5.06919 16.51519,-7.60383 25.05299,-7.60394 8.69778,1.1e-4 15.7681,2.7482 21.21099,8.24427 5.4961,5.44292 8.24419,12.51324 8.24427,21.21099 -8e-5,10.0853 -3.49522,19.82368 -10.48543,29.21515 l 28.41473,28.41472 7.68398,-7.68398 c -0.16019,-0.16005 -0.85388,-0.80038 -2.08108,-1.92099 -1.22741,-1.17391 -2.29462,-2.21445 -3.20166,-3.12162 -0.90724,-0.9071 -1.78769,-1.8676 -2.64137,-2.8815 -0.85387,-1.06717 -1.28076,-1.84091 -1.28066,-2.3212 -10e-5,-0.90709 1.30724,-2.668 3.92203,-5.28274 2.61459,-2.61463 4.3755,-3.92198 5.28274,-3.92203 0.69358,5e-5 1.30724,0.26686 1.84095,0.80041 0.32006,0.32022 1.54736,1.52084 3.68191,3.60187 2.13433,2.02777 4.32213,4.13552 6.5634,6.32328 2.24104,2.18784 4.53556,4.48236 6.88357,6.88357 2.40112,2.40127 4.34879,4.48235 5.84303,6.24323 1.54734,1.76094 2.32107,2.85484 2.3212,3.2817"
           id="path3863" />
      </g>
      <g
         id="text3005"
         style="font-size:143.43434143px;font-style:normal;font-variant:normal;font-weight:normal;font-stretch:normal;line-height:125%;letter-spacing:0px;word-spacing:0px;opacity:0.25;fill:#000000;fill-opacity:1;stroke:none;filter:url(#filter3833);font-family:FontAwesome;-inkscape-font-specification:FontAwesome">
        <path
           d="m 250.18585,419.99619 c 2.98815,-2.98814 4.48225,-6.61669 4.48232,-10.88564 -7e-5,-4.2688 -1.49417,-7.89734 -4.48232,-10.88564 -2.98828,-2.98812 -6.61682,-4.48223 -10.88565,-4.48233 -4.26892,1e-4 -7.89747,1.49421 -10.88564,4.48233 -2.98825,2.9883 -4.48236,6.61684 -4.48232,10.88564 -4e-5,2.24124 0.50689,4.45572 1.52079,6.64344 -2.18784,-1.01378 -4.40232,-1.52071 -6.64345,-1.52079 -4.2689,8e-5 -7.89744,1.49419 -10.88564,4.48233 -2.98823,2.98828 -4.48234,6.61682 -4.48232,10.88564 -2e-5,4.26893 1.49409,7.89748 4.48232,10.88564 2.9882,2.98826 6.61674,4.48237 10.88564,4.48232 4.26885,5e-5 7.89739,-1.49406 10.88565,-4.48232 2.98817,-2.98816 4.48227,-6.61671 4.48232,-10.88564 -5e-5,-2.2411 -0.50698,-4.45558 -1.52079,-6.64345 2.18776,1.01393 4.40223,1.52086 6.64344,1.52079 4.26883,7e-5 7.89737,-1.49404 10.88565,-4.48232 m 72.59762,45.46356 c -1.3e-4,0.90716 -1.30747,2.66808 -3.92203,5.28274 -2.61482,2.61471 -4.37573,3.92205 -5.28274,3.92203 -0.48037,2e-5 -1.2541,-0.42687 -2.3212,-1.28066 -1.01398,-0.85376 -1.97448,-1.73421 -2.88149,-2.64137 -0.90726,-0.90711 -1.9478,-1.97433 -3.12162,-3.20166 -1.1207,-1.22728 -1.76103,-1.92097 -1.921,-2.08108 l -7.68398,7.68399 17.60913,17.60912 c 1.49398,1.49411 2.24103,3.30838 2.24116,5.44282 -1.3e-4,2.24116 -1.04067,4.40228 -3.12162,6.48336 -2.0812,2.08107 -4.24232,3.12161 -6.48336,3.12162 -2.13455,-10e-6 -3.94883,-0.74707 -5.44282,-2.24116 l -53.70784,-53.70784 c -9.39158,6.99033 -19.12995,10.48547 -29.21514,10.48544 -8.69786,3e-5 -15.79487,-2.72138 -21.29103,-8.16423 -5.44283,-5.49614 -8.16424,-12.59315 -8.16424,-21.29104 0,-8.53769 2.53465,-16.88867 7.60395,-25.05298 5.06928,-8.16414 11.68603,-14.7809 19.85028,-19.85029 8.1642,-5.06919 16.51519,-7.60383 25.05299,-7.60394 8.69778,1.1e-4 15.7681,2.7482 21.21099,8.24427 5.4961,5.44292 8.24419,12.51324 8.24427,21.21099 -8e-5,10.0853 -3.49522,19.82368 -10.48543,29.21515 l 28.41473,28.41472 7.68398,-7.68398 c -0.16019,-0.16005 -0.85388,-0.80038 -2.08108,-1.92099 -1.22741,-1.17391 -2.29462,-2.21445 -3.20166,-3.12162 -0.90724,-0.9071 -1.78769,-1.8676 -2.64137,-2.8815 -0.85387,-1.06717 -1.28076,-1.84091 -1.28066,-2.3212 -10e-5,-0.90709 1.30724,-2.668 3.92203,-5.28274 2.61459,-2.61463 4.3755,-3.92198 5.28274,-3.92203 0.69358,5e-5 1.30724,0.26686 1.84095,0.80041 0.32006,0.32022 1.54736,1.52084 3.68191,3.60187 2.13433,2.02777 4.32213,4.13552 6.5634,6.32328 2.24104,2.18784 4.53556,4.48236 6.88357,6.88357 2.40112,2.40127 4.34879,4.48235 5.84303,6.24323 1.54734,1.76094 2.32107,2.85484 2.3212,3.2817"
           id="path3866" />
      </g>
    </g>
  </g>
</svg>
